<svg width="24" height="24" viewBox="0 0 24 24" fill="none" xmlns="http://www.w3.org/2000/svg">
  <!-- Icône fleur simple pour usage dans l'interface -->
  <path d="M12 3C10.5 3 9.5 4 9.5 5.5C9.5 6.5 10 7.3 10.7 7.8C10.3 8.1 10 8.5 10 9C10 10.1 10.9 11 12 11C13.1 11 14 10.1 14 9C14 8.5 13.7 8.1 13.3 7.8C14 7.3 14.5 6.5 14.5 5.5C14.5 4 13.5 3 12 3Z" fill="currentColor"/>
  
  <path d="M5.5 9.5C4 9.5 3 10.5 3 12C3 13.5 4 14.5 5.5 14.5C6.5 14.5 7.3 14 7.8 13.3C8.1 13.7 8.5 14 9 14C10.1 14 11 13.1 11 12C11 10.9 10.1 10 9 10C8.5 10 8.1 10.3 7.8 10.7C7.3 10 6.5 9.5 5.5 9.5Z" fill="currentColor"/>
  
  <path d="M18.5 9.5C17 9.5 16.2 10.3 16.7 10.7C16.4 10.3 16 10 15.5 10C14.4 10 13.5 10.9 13.5 12C13.5 13.1 14.4 14 15.5 14C16 14 16.4 13.7 16.7 13.3C16.2 14 17 14.5 18.5 14.5C20 14.5 21 13.5 21 12C21 10.5 20 9.5 18.5 9.5Z" fill="currentColor"/>
  
  <path d="M10.7 16.2C10 16.7 9.5 17.5 9.5 18.5C9.5 20 10.5 21 12 21C13.5 21 14.5 20 14.5 18.5C14.5 17.5 14 16.7 13.3 16.2C13.7 15.9 14 15.5 14 15C14 13.9 13.1 13 12 13C10.9 13 10 13.9 10 15C10 15.5 10.3 15.9 10.7 16.2Z" fill="currentColor"/>
  
  <!-- Centre de la fleur -->
  <circle cx="12" cy="12" r="3" fill="currentColor"/>
</svg>